<svg width="1080" height="720" viewBox="0 0 1080 720" fill="none" xmlns="http://www.w3.org/2000/svg">
  <defs>
    <linearGradient id="bg" x1="0" y1="0" x2="1080" y2="720" gradientUnits="userSpaceOnUse">
      <stop stop-color="#0B1220" />
      <stop offset="1" stop-color="#07101A" />
    </linearGradient>
    <linearGradient id="accent" x1="0" y1="0" x2="1" y2="1">
      <stop offset="0" stop-color="#38BDF8" />
      <stop offset="1" stop-color="#F59E0B" />
    </linearGradient>
    <radialGradient id="pulse" cx="0" cy="0" r="1" gradientUnits="userSpaceOnUse" gradientTransform="translate(280 180) rotate(45) scale(140 140)">
      <stop stop-color="#38BDF8" stop-opacity="0.3" />
      <stop offset="1" stop-color="#38BDF8" stop-opacity="0" />
    </radialGradient>
  </defs>
  <rect width="1080" height="720" rx="40" fill="url(#bg)" />
  <circle cx="280" cy="180" r="140" fill="url(#pulse)" />
  <path d="M140 336C180 206 336 166 420 212C504 258 620 298 706 182C792 66 936 128 984 250" stroke="#F8FAFC" stroke-width="4" stroke-linecap="round" stroke-dasharray="16 12" />
  <circle cx="140" cy="336" r="26" fill="#D4AF37" />
  <circle cx="140" cy="336" r="12" fill="#0B1220" />
  <circle cx="420" cy="212" r="32" fill="#38BDF8" />
  <circle cx="420" cy="212" r="14" fill="#0B1220" />
  <circle cx="706" cy="182" r="40" fill="#F59E0B" />
  <circle cx="706" cy="182" r="18" fill="#0B1220" />
  <circle cx="984" cy="250" r="48" fill="#A855F7" />
  <circle cx="984" cy="250" r="20" fill="#0B1220" />
  <path d="M158 332L232 218" stroke="#F8FAFC" stroke-width="2" opacity="0.65" />
  <path d="M440 202L512 142" stroke="#F8FAFC" stroke-width="2" opacity="0.65" />
  <path d="M726 194L794 132" stroke="#F8FAFC" stroke-width="2" opacity="0.65" />
  <path d="M100 612H980" stroke="#27374D" stroke-width="3" />
  <rect x="136" y="558" width="196" height="92" rx="28" fill="#111827" />
  <rect x="160" y="590" width="152" height="20" rx="10" fill="#38BDF8" />
  <rect x="160" y="626" width="108" height="14" rx="7" fill="#94A3B8" opacity="0.65" />
  <rect x="418" y="548" width="196" height="92" rx="28" fill="#111827" />
  <rect x="442" y="578" width="118" height="18" rx="9" fill="#F59E0B" />
  <rect x="442" y="606" width="156" height="14" rx="7" fill="#E2E8F0" opacity="0.75" />
  <rect x="700" y="518" width="266" height="132" rx="36" fill="#111827" />
  <rect x="734" y="558" width="126" height="18" rx="9" fill="#A855F7" />
  <rect x="734" y="592" width="186" height="14" rx="7" fill="#94A3B8" opacity="0.7" />
  <rect x="734" y="626" width="132" height="14" rx="7" fill="#E2E8F0" opacity="0.65" />
  <rect x="256" y="98" width="428" height="158" rx="30" fill="#111827" opacity="0.4" />
  <rect x="286" y="128" width="98" height="22" rx="11" fill="#F8FAFC" opacity="0.85" />
  <rect x="286" y="162" width="312" height="16" rx="8" fill="#94A3B8" opacity="0.75" />
  <rect x="286" y="196" width="224" height="14" rx="7" fill="#38BDF8" opacity="0.8" />
  <circle cx="984" cy="118" r="14" fill="#38BDF8" />
  <circle cx="1000" cy="132" r="8" fill="#F8FAFC" />
</svg>

